<svg width="16" height="16" viewBox="0 0 16 16" fill="none" xmlns="http://www.w3.org/2000/svg">
<path d="M10 5.00003V11C10 11.1326 9.94732 11.2598 9.85355 11.3536C9.75978 11.4474 9.6326 11.5 9.5 11.5H8V14C8.00007 14.099 7.97079 14.1957 7.91586 14.278C7.86092 14.3603 7.7828 14.4245 7.69139 14.4623C7.59998 14.5002 7.49939 14.5101 7.40234 14.4908C7.3053 14.4715 7.21617 14.4238 7.14625 14.3538L1.14625 8.35378C1.09976 8.30734 1.06288 8.2522 1.03772 8.1915C1.01255 8.1308 0.999603 8.06574 0.999603 8.00003C0.999603 7.93432 1.01255 7.86926 1.03772 7.80856C1.06288 7.74786 1.09976 7.69271 1.14625 7.64628L7.14625 1.64628C7.21617 1.57627 7.3053 1.52859 7.40234 1.50926C7.49939 1.48994 7.59998 1.49984 7.69139 1.53772C7.7828 1.57559 7.86092 1.63974 7.91586 1.72204C7.97079 1.80433 8.00007 1.90108 8 2.00003V4.50003H9.5C9.6326 4.50003 9.75978 4.55271 9.85355 4.64647C9.94732 4.74024 10 4.86742 10 5.00003ZM11.5 4.50003C11.3674 4.50003 11.2402 4.55271 11.1464 4.64647C11.0527 4.74024 11 4.86742 11 5.00003V11C11 11.1326 11.0527 11.2598 11.1464 11.3536C11.2402 11.4474 11.3674 11.5 11.5 11.5C11.6326 11.5 11.7598 11.4474 11.8535 11.3536C11.9473 11.2598 12 11.1326 12 11V5.00003C12 4.86742 11.9473 4.74024 11.8535 4.64647C11.7598 4.55271 11.6326 4.50003 11.5 4.50003ZM13.5 4.50003C13.3674 4.50003 13.2402 4.55271 13.1464 4.64647C13.0527 4.74024 13 4.86742 13 5.00003V11C13 11.1326 13.0527 11.2598 13.1464 11.3536C13.2402 11.4474 13.3674 11.5 13.5 11.5C13.6326 11.5 13.7598 11.4474 13.8535 11.3536C13.9473 11.2598 14 11.1326 14 11V5.00003C14 4.86742 13.9473 4.74024 13.8535 4.64647C13.7598 4.55271 13.6326 4.50003 13.5 4.50003Z" fill="#201F24"/>
</svg>
