<svg width="16" height="16" viewBox="0 0 16 16" fill="none" xmlns="http://www.w3.org/2000/svg">
<path d="M7.4619 10.8088C7.4998 10.9001 7.50976 11.0007 7.49051 11.0977C7.47127 11.1947 7.42368 11.2838 7.35378 11.3538L5.35378 13.3538C5.30734 13.4003 5.2522 13.4371 5.1915 13.4623C5.1308 13.4875 5.06574 13.5004 5.00003 13.5004C4.93432 13.5004 4.86926 13.4875 4.80856 13.4623C4.74786 13.4371 4.69271 13.4003 4.64628 13.3538L2.64628 11.3538C2.57627 11.2838 2.52859 11.1947 2.50926 11.0977C2.48994 11.0006 2.49984 10.9 2.53772 10.8086C2.57559 10.7172 2.63974 10.6391 2.72204 10.5842C2.80433 10.5292 2.90108 10.4999 3.00003 10.5H4.50003V3.00003C4.50003 2.86742 4.55271 2.74024 4.64647 2.64647C4.74024 2.55271 4.86742 2.50003 5.00003 2.50003C5.13264 2.50003 5.25981 2.55271 5.35358 2.64647C5.44735 2.74024 5.50003 2.86742 5.50003 3.00003V10.5H7.00003C7.09892 10.5 7.19558 10.5294 7.27779 10.5843C7.36001 10.6393 7.42408 10.7174 7.4619 10.8088ZM13.3538 4.64628L11.3538 2.64628C11.3073 2.59979 11.2522 2.56291 11.1915 2.53775C11.1308 2.51259 11.0657 2.49963 11 2.49963C10.9343 2.49963 10.8693 2.51259 10.8086 2.53775C10.7479 2.56291 10.6927 2.59979 10.6463 2.64628L8.64628 4.64628C8.57627 4.7162 8.52859 4.80533 8.50926 4.90237C8.48994 4.99942 8.49984 5.10001 8.53772 5.19142C8.57559 5.28283 8.63974 5.36095 8.72204 5.41589C8.80433 5.47082 8.90108 5.50011 9.00003 5.50003H10.5V13C10.5 13.1326 10.5527 13.2598 10.6465 13.3536C10.7402 13.4473 10.8674 13.5 11 13.5C11.1326 13.5 11.2598 13.4473 11.3536 13.3536C11.4474 13.2598 11.5 13.1326 11.5 13V5.50003H13C13.099 5.50011 13.1957 5.47082 13.278 5.41589C13.3603 5.36095 13.4245 5.28283 13.4623 5.19142C13.5002 5.10001 13.5101 4.99942 13.4908 4.90237C13.4715 4.80533 13.4238 4.7162 13.3538 4.64628Z" fill="#201F24"/>
</svg>
