<svg width="16" height="16" viewBox="0 0 16 16" fill="none" xmlns="http://www.w3.org/2000/svg">
<g clip-path="url(#clip0_173_907)">
<path d="M12.5 4V12C12.5 12.2652 12.3946 12.5196 12.2071 12.7071C12.0196 12.8946 11.7652 13 11.5 13H10.5C10.2348 13 9.98043 12.8946 9.79289 12.7071C9.60536 12.5196 9.5 12.2652 9.5 12V8.5H6.5V12C6.5 12.2652 6.39464 12.5196 6.20711 12.7071C6.01957 12.8946 5.76522 13 5.5 13H4.5C4.23478 13 3.98043 12.8946 3.79289 12.7071C3.60536 12.5196 3.5 12.2652 3.5 12V4C3.5 3.73478 3.60536 3.48043 3.79289 3.29289C3.98043 3.10536 4.23478 3 4.5 3H5.5C5.76522 3 6.01957 3.10536 6.20711 3.29289C6.39464 3.48043 6.5 3.73478 6.5 4V7.5H9.5V4C9.5 3.73478 9.60536 3.48043 9.79289 3.29289C9.98043 3.10536 10.2348 3 10.5 3H11.5C11.7652 3 12.0196 3.10536 12.2071 3.29289C12.3946 3.48043 12.5 3.73478 12.5 4ZM2.25 4.5H2C1.73478 4.5 1.48043 4.60536 1.29289 4.79289C1.10536 4.98043 1 5.23478 1 5.5V7.5H0.516875C0.387666 7.49809 0.262528 7.54518 0.166633 7.6318C0.0707386 7.71842 0.011202 7.83814 -4.16767e-08 7.96688C-0.00454124 8.03527 0.00502836 8.10387 0.0281144 8.1684C0.0512004 8.23294 0.0873097 8.29205 0.134199 8.34204C0.181089 8.39204 0.237758 8.43186 0.300686 8.45903C0.363613 8.48621 0.431456 8.50015 0.5 8.5H1V10.5C1 10.7652 1.10536 11.0196 1.29289 11.2071C1.48043 11.3946 1.73478 11.5 2 11.5H2.25C2.3163 11.5 2.37989 11.4737 2.42678 11.4268C2.47366 11.3799 2.5 11.3163 2.5 11.25V4.75C2.5 4.6837 2.47366 4.62011 2.42678 4.57322C2.37989 4.52634 2.3163 4.5 2.25 4.5ZM16 7.96688C15.9888 7.83836 15.9295 7.71882 15.8338 7.63223C15.7382 7.54564 15.6134 7.49841 15.4844 7.5H15V5.5C15 5.23478 14.8946 4.98043 14.7071 4.79289C14.5196 4.60536 14.2652 4.5 14 4.5H13.75C13.6837 4.5 13.6201 4.52634 13.5732 4.57322C13.5263 4.62011 13.5 4.6837 13.5 4.75V11.25C13.5 11.3163 13.5263 11.3799 13.5732 11.4268C13.6201 11.4737 13.6837 11.5 13.75 11.5H14C14.2652 11.5 14.5196 11.3946 14.7071 11.2071C14.8946 11.0196 15 10.7652 15 10.5V8.5H15.5C15.5685 8.50015 15.6364 8.48621 15.6993 8.45903C15.7622 8.43186 15.8189 8.39204 15.8658 8.34204C15.9127 8.29205 15.9488 8.23294 15.9719 8.1684C15.995 8.10387 16.0045 8.03527 16 7.96688Z" fill="#201F24"/>
</g>
<defs>
<clipPath id="clip0_173_907">
<rect width="16" height="16" fill="white"/>
</clipPath>
</defs>
</svg>
