<svg width="16" height="16" viewBox="0 0 16 16" fill="none" xmlns="http://www.w3.org/2000/svg">
<path d="M2.64628 10.6466L7.64628 5.64662C7.69272 5.60013 7.74786 5.56325 7.80856 5.53809C7.86926 5.51292 7.93433 5.49997 8.00003 5.49997C8.06574 5.49997 8.1308 5.51292 8.1915 5.53809C8.2522 5.56325 8.30735 5.60013 8.35378 5.64662L13.3538 10.6466C13.4238 10.7165 13.4715 10.8057 13.4908 10.9027C13.5101 10.9998 13.5002 11.1003 13.4623 11.1918C13.4245 11.2832 13.3603 11.3613 13.278 11.4162C13.1957 11.4712 13.099 11.5004 13 11.5004L3.00003 11.5004C2.90109 11.5004 2.80434 11.4712 2.72204 11.4162C2.63974 11.3613 2.5756 11.2832 2.53772 11.1918C2.49985 11.1004 2.48994 10.9998 2.50927 10.9027C2.52859 10.8057 2.57628 10.7165 2.64628 10.6466Z" fill="#201F24"/>
</svg>
