<svg width="16" height="16" viewBox="0 0 16 16" fill="none" xmlns="http://www.w3.org/2000/svg">
<path d="M5.85344 3.14647L10.8534 8.14647C10.8999 8.1929 10.9368 8.24805 10.962 8.30875C10.9871 8.36944 11.0001 8.43451 11.0001 8.50022C11.0001 8.56592 10.9871 8.63099 10.962 8.69169C10.9368 8.75238 10.8999 8.80753 10.8534 8.85397L5.85345 13.854C5.78352 13.924 5.69439 13.9717 5.59735 13.991C5.50031 14.0103 5.39971 14.0004 5.3083 13.9625C5.21689 13.9247 5.13877 13.8605 5.08383 13.7782C5.0289 13.6959 4.99962 13.5992 4.99969 13.5002L4.99969 3.50022C4.99962 3.40127 5.0289 3.30452 5.08383 3.22222C5.13877 3.13993 5.21689 3.07578 5.3083 3.0379C5.39971 3.00003 5.50031 2.99013 5.59735 3.00945C5.69439 3.02878 5.78352 3.07646 5.85344 3.14647Z" fill="#201F24"/>
</svg>
