<svg width="16" height="16" viewBox="0 0 16 16" fill="none" xmlns="http://www.w3.org/2000/svg">
<path d="M1.54686 7.22122C1.69451 5.98313 2.20091 4.81523 3.00373 3.86122C3.09256 3.7541 3.20277 3.6667 3.32731 3.60462C3.45185 3.54253 3.58798 3.50711 3.72699 3.50064C3.86599 3.49417 4.00482 3.51679 4.13459 3.56704C4.26436 3.61729 4.38221 3.69407 4.48061 3.79247L6.20998 5.55872C6.37653 5.72489 6.4786 5.94485 6.49794 6.17932C6.51729 6.41379 6.45267 6.6475 6.31561 6.83872C6.21179 6.986 6.13361 7.14976 6.08436 7.32309C6.06872 7.37424 6.03708 7.41901 5.99411 7.45085C5.95114 7.48269 5.89909 7.4999 5.84561 7.49997H1.79561C1.76032 7.50003 1.72541 7.49261 1.69319 7.47821C1.66097 7.46381 1.63217 7.44276 1.60867 7.41642C1.58517 7.39009 1.56752 7.35909 1.55686 7.32544C1.54621 7.2918 1.5428 7.25628 1.54686 7.22122ZM8.58686 1.50372C8.44874 1.49167 8.30962 1.50848 8.17834 1.55308C8.04706 1.59767 7.92649 1.66908 7.82428 1.76277C7.72207 1.85645 7.64046 1.97037 7.58463 2.09728C7.52881 2.22419 7.49998 2.36132 7.49998 2.49997V5.04184C7.49826 5.27771 7.58069 5.50646 7.73248 5.687C7.88426 5.86754 8.09545 5.98804 8.32811 6.02684C8.7662 6.09912 9.16778 6.31512 9.46957 6.6408C9.77135 6.96648 9.95618 7.38333 9.99493 7.82565C10.0337 8.26796 9.92413 8.7106 9.68356 9.08379C9.443 9.45698 9.08508 9.73951 8.66623 9.88684C8.61748 9.90475 8.5754 9.93719 8.54567 9.97977C8.51594 10.0224 8.5 10.073 8.49998 10.125V14.2018C8.49975 14.2372 8.50703 14.2723 8.52135 14.3047C8.53568 14.337 8.55671 14.366 8.58306 14.3896C8.60941 14.4133 8.64048 14.431 8.67421 14.4417C8.70795 14.4525 8.74357 14.4559 8.77873 14.4518C10.3386 14.2593 11.7765 13.5098 12.8277 12.3413C13.879 11.1728 14.4728 9.66399 14.5 8.09247C14.5469 4.69934 11.9494 1.80497 8.58686 1.50372ZM7.32811 9.88497C7.04862 9.78528 6.79482 9.62464 6.5851 9.41471C6.37539 9.20478 6.21501 8.95081 6.11561 8.67122C6.09856 8.62164 6.06658 8.57855 6.02405 8.54788C5.98152 8.51722 5.93054 8.50048 5.87811 8.49997H1.79498C1.75965 8.49975 1.72466 8.50702 1.69234 8.5213C1.66002 8.53558 1.63109 8.55656 1.60747 8.58284C1.58385 8.60912 1.56606 8.64011 1.55529 8.67377C1.54452 8.70742 1.54101 8.74298 1.54498 8.77809C1.72005 10.2227 2.37438 11.567 3.40336 12.596C4.43235 13.625 5.7766 14.2793 7.22123 14.4543C7.25635 14.4583 7.2919 14.4548 7.32556 14.444C7.35922 14.4333 7.39021 14.4155 7.41649 14.3919C7.44277 14.3682 7.46374 14.3393 7.47803 14.307C7.49231 14.2747 7.49958 14.2397 7.49936 14.2043V10.125C7.49946 10.0721 7.483 10.0205 7.45228 9.97746C7.42157 9.93442 7.37814 9.90207 7.32811 9.88497Z" fill="#201F24"/>
</svg>
