<svg width="26" height="27" viewBox="0 0 26 27" fill="none" xmlns="http://www.w3.org/2000/svg">
<path d="M17.53 10.03L14.06 13.5L17.53 16.97C17.6037 17.0387 17.6628 17.1215 17.7038 17.2135C17.7448 17.3055 17.7668 17.4048 17.7686 17.5055C17.7704 17.6062 17.7518 17.7062 17.7141 17.7996C17.6764 17.893 17.6203 17.9778 17.549 18.049C17.4778 18.1203 17.393 18.1764 17.2996 18.2141C17.2062 18.2518 17.1062 18.2704 17.0055 18.2686C16.9048 18.2668 16.8055 18.2448 16.7135 18.2038C16.6215 18.1628 16.5387 18.1037 16.47 18.03L13 14.56L9.53 18.03C9.38783 18.1625 9.19978 18.2346 9.00548 18.2312C8.81118 18.2277 8.6258 18.149 8.48838 18.0116C8.35097 17.8742 8.27226 17.6888 8.26883 17.4945C8.2654 17.3002 8.33753 17.1122 8.47001 16.97L11.94 13.5L8.47001 10.03C8.33753 9.88782 8.2654 9.69978 8.26883 9.50548C8.27226 9.31118 8.35097 9.12579 8.48838 8.98838C8.6258 8.85097 8.81118 8.77225 9.00548 8.76882C9.19978 8.7654 9.38783 8.83752 9.53 8.97L13 12.44L16.47 8.97C16.6122 8.83752 16.8002 8.7654 16.9945 8.76882C17.1888 8.77225 17.3742 8.85097 17.5116 8.98838C17.649 9.12579 17.7278 9.31118 17.7312 9.50548C17.7346 9.69978 17.6625 9.88782 17.53 10.03ZM25.75 13.5C25.75 16.0217 25.0022 18.4868 23.6012 20.5835C22.2003 22.6802 20.209 24.3144 17.8792 25.2795C15.5495 26.2445 12.9859 26.497 10.5126 26.005C8.03935 25.5131 5.76751 24.2987 3.98439 22.5156C2.20127 20.7325 0.986955 18.4607 0.494993 15.9874C0.00303192 13.5141 0.255524 10.9505 1.22054 8.62079C2.18556 6.29103 3.81976 4.29975 5.91648 2.89876C8.01321 1.49777 10.4783 0.75 13 0.75C16.3803 0.75397 19.621 2.09854 22.0112 4.48877C24.4015 6.879 25.746 10.1197 25.75 13.5ZM24.25 13.5C24.25 11.275 23.5902 9.09989 22.354 7.24983C21.1179 5.39978 19.3609 3.95784 17.3052 3.10635C15.2495 2.25487 12.9875 2.03208 10.8052 2.46617C8.62295 2.90025 6.61839 3.97171 5.04505 5.54505C3.47171 7.11839 2.40025 9.12295 1.96617 11.3052C1.53209 13.4875 1.75487 15.7495 2.60636 17.8052C3.45785 19.8609 4.89979 21.6179 6.74984 22.854C8.59989 24.0902 10.775 24.75 13 24.75C15.9827 24.7467 18.8422 23.5604 20.9513 21.4513C23.0604 19.3422 24.2467 16.4827 24.25 13.5Z" fill="#696868"/>
</svg>
