<svg width="16" height="16" viewBox="0 0 16 16" fill="none" xmlns="http://www.w3.org/2000/svg">
<path d="M14.2381 4.1725L14.2331 4.17812L10 8.69812V12.1663C10.0003 12.3312 9.9597 12.4936 9.88195 12.6391C9.8042 12.7846 9.69167 12.9086 9.55439 13L7.55439 14.3337C7.40367 14.4341 7.22852 14.4917 7.04763 14.5003C6.86675 14.509 6.68691 14.4683 6.52733 14.3827C6.36774 14.2971 6.2344 14.1698 6.14153 14.0143C6.04866 13.8589 5.99975 13.6811 6.00001 13.5V8.69812L1.76689 4.17812L1.76189 4.1725C1.63173 4.02926 1.54594 3.85133 1.51491 3.66029C1.48389 3.46924 1.50897 3.27331 1.58712 3.09624C1.66526 2.91917 1.79311 2.76859 1.95515 2.66275C2.1172 2.55692 2.30647 2.50038 2.50001 2.5H13.5C13.6937 2.50002 13.8832 2.55629 14.0456 2.66199C14.2079 2.76768 14.336 2.91825 14.4144 3.09538C14.4928 3.27252 14.518 3.46861 14.4871 3.65982C14.4561 3.85104 14.3703 4.02914 14.24 4.1725H14.2381Z" fill="#201F24"/>
</svg>
