<svg width="16" height="16" viewBox="0 0 16 16" fill="none" xmlns="http://www.w3.org/2000/svg">
<path d="M14 7.22185V13C14 13.2652 13.8946 13.5195 13.7071 13.7071C13.5196 13.8946 13.2652 14 13 14H10.5C10.2348 14 9.98043 13.8946 9.79289 13.7071C9.60536 13.5195 9.5 13.2652 9.5 13V10.5C9.5 10.3674 9.44732 10.2402 9.35355 10.1464C9.25979 10.0527 9.13261 9.99997 9 9.99997H7C6.86739 9.99997 6.74021 10.0527 6.64645 10.1464C6.55268 10.2402 6.5 10.3674 6.5 10.5V13C6.5 13.2652 6.39464 13.5195 6.20711 13.7071C6.01957 13.8946 5.76522 14 5.5 14H3C2.73478 14 2.48043 13.8946 2.29289 13.7071C2.10536 13.5195 2 13.2652 2 13V7.22185C1.99998 7.08345 2.02869 6.94655 2.08431 6.81982C2.13993 6.69309 2.22125 6.57928 2.32312 6.4856L7.32312 1.7681L7.33 1.76122C7.51409 1.59381 7.75398 1.50104 8.00281 1.50104C8.25164 1.50104 8.49154 1.59381 8.67562 1.76122C8.67776 1.76367 8.68005 1.76597 8.6825 1.7681L13.6825 6.4856C13.7834 6.57977 13.8636 6.6938 13.9183 6.82051C13.9729 6.94722 14.0007 7.08386 14 7.22185Z" fill="#201F24"/>
</svg>
