<svg width="16" height="16" viewBox="0 0 16 16" fill="none" xmlns="http://www.w3.org/2000/svg">
<path d="M11.5 3.05063V2C11.5 1.73478 11.3946 1.48043 11.2071 1.29289C11.0196 1.10536 10.7652 1 10.5 1H5.5C5.23478 1 4.98043 1.10536 4.79289 1.29289C4.60536 1.48043 4.5 1.73478 4.5 2V3.05063C3.93569 3.16641 3.42859 3.4733 3.06425 3.91951C2.6999 4.36571 2.50061 4.92394 2.5 5.5V12.5C2.5 13.163 2.76339 13.7989 3.23223 14.2678C3.70107 14.7366 4.33696 15 5 15H11C11.663 15 12.2989 14.7366 12.7678 14.2678C13.2366 13.7989 13.5 13.163 13.5 12.5V5.5C13.4994 4.92394 13.3001 4.36571 12.9358 3.91951C12.5714 3.4733 12.0643 3.16641 11.5 3.05063ZM7.5 2H8.5V3H7.5V2ZM5.5 2H6.5V3H5.5V2ZM8.5 11.5V12C8.5 12.1326 8.44732 12.2598 8.35355 12.3536C8.25979 12.4473 8.13261 12.5 8 12.5C7.86739 12.5 7.74021 12.4473 7.64645 12.3536C7.55268 12.2598 7.5 12.1326 7.5 12V11.5H7C6.86739 11.5 6.74021 11.4473 6.64645 11.3536C6.55268 11.2598 6.5 11.1326 6.5 11C6.5 10.8674 6.55268 10.7402 6.64645 10.6464C6.74021 10.5527 6.86739 10.5 7 10.5H8.5C8.63261 10.5 8.75979 10.4473 8.85355 10.3536C8.94732 10.2598 9 10.1326 9 10C9 9.86739 8.94732 9.74021 8.85355 9.64645C8.75979 9.55268 8.63261 9.5 8.5 9.5H7.5C7.10218 9.5 6.72064 9.34196 6.43934 9.06066C6.15804 8.77936 6 8.39782 6 8C6 7.60218 6.15804 7.22064 6.43934 6.93934C6.72064 6.65804 7.10218 6.5 7.5 6.5V6C7.5 5.86739 7.55268 5.74021 7.64645 5.64645C7.74021 5.55268 7.86739 5.5 8 5.5C8.13261 5.5 8.25979 5.55268 8.35355 5.64645C8.44732 5.74021 8.5 5.86739 8.5 6V6.5H9C9.13261 6.5 9.25979 6.55268 9.35355 6.64645C9.44732 6.74021 9.5 6.86739 9.5 7C9.5 7.13261 9.44732 7.25979 9.35355 7.35355C9.25979 7.44732 9.13261 7.5 9 7.5H7.5C7.36739 7.5 7.24021 7.55268 7.14645 7.64645C7.05268 7.74021 7 7.86739 7 8C7 8.13261 7.05268 8.25979 7.14645 8.35355C7.24021 8.44732 7.36739 8.5 7.5 8.5H8.5C8.89782 8.5 9.27936 8.65804 9.56066 8.93934C9.84196 9.22064 10 9.60218 10 10C10 10.3978 9.84196 10.7794 9.56066 11.0607C9.27936 11.342 8.89782 11.5 8.5 11.5ZM10.5 3H9.5V2H10.5V3Z" fill="#201F24"/>
</svg>
