<svg width="16" height="16" viewBox="0 0 16 16" fill="none" xmlns="http://www.w3.org/2000/svg">
<path d="M3.5 8C3.5 8.19778 3.44135 8.39112 3.33147 8.55557C3.22159 8.72002 3.06541 8.84819 2.88268 8.92388C2.69996 8.99957 2.49889 9.01937 2.30491 8.98079C2.11093 8.9422 1.93275 8.84696 1.79289 8.70711C1.65304 8.56725 1.5578 8.38907 1.51922 8.19509C1.48063 8.00111 1.50043 7.80004 1.57612 7.61732C1.65181 7.43459 1.77998 7.27841 1.94443 7.16853C2.10888 7.05865 2.30222 7 2.5 7C2.76522 7 3.01957 7.10536 3.20711 7.29289C3.39464 7.48043 3.5 7.73478 3.5 8ZM2.5 3C2.30222 3 2.10888 3.05865 1.94443 3.16853C1.77998 3.27841 1.65181 3.43459 1.57612 3.61732C1.50043 3.80004 1.48063 4.00111 1.51922 4.19509C1.5578 4.38907 1.65304 4.56725 1.79289 4.70711C1.93275 4.84696 2.11093 4.9422 2.30491 4.98079C2.49889 5.01937 2.69996 4.99957 2.88268 4.92388C3.06541 4.84819 3.22159 4.72002 3.33147 4.55557C3.44135 4.39112 3.5 4.19778 3.5 4C3.5 3.73478 3.39464 3.48043 3.20711 3.29289C3.01957 3.10536 2.76522 3 2.5 3ZM2.5 11C2.30222 11 2.10888 11.0586 1.94443 11.1685C1.77998 11.2784 1.65181 11.4346 1.57612 11.6173C1.50043 11.8 1.48063 12.0011 1.51922 12.1951C1.5578 12.3891 1.65304 12.5673 1.79289 12.7071C1.93275 12.847 2.11093 12.9422 2.30491 12.9808C2.49889 13.0194 2.69996 12.9996 2.88268 12.9239C3.06541 12.8482 3.22159 12.72 3.33147 12.5556C3.44135 12.3911 3.5 12.1978 3.5 12C3.5 11.7348 3.39464 11.4804 3.20711 11.2929C3.01957 11.1054 2.76522 11 2.5 11ZM13.5 7H5.5C5.36739 7 5.24022 7.05268 5.14645 7.14645C5.05268 7.24021 5 7.36739 5 7.5V8.5C5 8.63261 5.05268 8.75979 5.14645 8.85355C5.24022 8.94732 5.36739 9 5.5 9H13.5C13.6326 9 13.7598 8.94732 13.8536 8.85355C13.9473 8.75979 14 8.63261 14 8.5V7.5C14 7.36739 13.9473 7.24021 13.8536 7.14645C13.7598 7.05268 13.6326 7 13.5 7ZM13.5 3H5.5C5.36739 3 5.24022 3.05268 5.14645 3.14645C5.05268 3.24021 5 3.36739 5 3.5V4.5C5 4.63261 5.05268 4.75979 5.14645 4.85355C5.24022 4.94732 5.36739 5 5.5 5H13.5C13.6326 5 13.7598 4.94732 13.8536 4.85355C13.9473 4.75979 14 4.63261 14 4.5V3.5C14 3.36739 13.9473 3.24021 13.8536 3.14645C13.7598 3.05268 13.6326 3 13.5 3ZM13.5 11H5.5C5.36739 11 5.24022 11.0527 5.14645 11.1464C5.05268 11.2402 5 11.3674 5 11.5V12.5C5 12.6326 5.05268 12.7598 5.14645 12.8536C5.24022 12.9473 5.36739 13 5.5 13H13.5C13.6326 13 13.7598 12.9473 13.8536 12.8536C13.9473 12.7598 14 12.6326 14 12.5V11.5C14 11.3674 13.9473 11.2402 13.8536 11.1464C13.7598 11.0527 13.6326 11 13.5 11Z" fill="#201F24"/>
</svg>
