<svg width="16" height="16" viewBox="0 0 16 16" fill="none" xmlns="http://www.w3.org/2000/svg">
<path d="M14.3537 13.6463L11.2244 10.5175C12.1314 9.42859 12.5837 8.03189 12.4871 6.61798C12.3906 5.20407 11.7527 3.88181 10.7061 2.92625C9.65948 1.9707 8.28477 1.45543 6.86793 1.48763C5.4511 1.51983 4.10122 2.09702 3.0991 3.09913C2.09699 4.10125 1.5198 5.45113 1.4876 6.86796C1.4554 8.2848 1.97067 9.65951 2.92622 10.7061C3.88177 11.7527 5.20404 12.3906 6.61795 12.4872C8.03186 12.5837 9.42856 12.1314 10.5175 11.2244L13.6462 14.3538C13.6927 14.4002 13.7478 14.4371 13.8085 14.4622C13.8692 14.4874 13.9343 14.5003 14 14.5003C14.0657 14.5003 14.1307 14.4874 14.1914 14.4622C14.2521 14.4371 14.3073 14.4002 14.3537 14.3538C14.4002 14.3073 14.437 14.2522 14.4622 14.1915C14.4873 14.1308 14.5003 14.0657 14.5003 14C14.5003 13.9343 14.4873 13.8693 14.4622 13.8086C14.437 13.7479 14.4002 13.6927 14.3537 13.6463ZM2.49999 7.00002C2.49999 6.11 2.76391 5.23998 3.25838 4.49995C3.75284 3.75993 4.45565 3.18316 5.27791 2.84256C6.10018 2.50197 7.00498 2.41285 7.8779 2.58649C8.75081 2.76012 9.55263 3.1887 10.182 3.81804C10.8113 4.44738 11.2399 5.2492 11.4135 6.12211C11.5872 6.99503 11.498 7.89983 11.1574 8.7221C10.8169 9.54436 10.2401 10.2472 9.50006 10.7416C8.76004 11.2361 7.89001 11.5 6.99999 11.5C5.80692 11.4987 4.6631 11.0242 3.81947 10.1805C2.97584 9.33691 2.50131 8.19309 2.49999 7.00002Z" fill="#201F24"/>
</svg>
