<svg width="16" height="16" viewBox="0 0 16 16" fill="none" xmlns="http://www.w3.org/2000/svg">
<path d="M13.1438 3.52123L8.14375 2.02123C8.0691 1.99882 7.99025 1.99418 7.91348 2.00766C7.83672 2.02115 7.76417 2.0524 7.70162 2.09891C7.63908 2.14542 7.58828 2.20591 7.55327 2.27555C7.51827 2.34518 7.50002 2.42204 7.5 2.49998V9.26623C6.98794 8.80823 6.3342 8.53986 5.64804 8.50596C4.96188 8.47205 4.28487 8.67468 3.73016 9.07998C3.17545 9.48527 2.77664 10.0687 2.6004 10.7327C2.42416 11.3967 2.48115 12.1011 2.76186 12.7281C3.04257 13.3551 3.52998 13.8668 4.14264 14.1777C4.7553 14.4885 5.45608 14.5796 6.12787 14.4359C6.79965 14.2921 7.40174 13.9221 7.8335 13.3877C8.26526 12.8533 8.50053 12.187 8.5 11.5V6.17186L12.8563 7.47873C12.9309 7.50114 13.0098 7.50579 13.0865 7.4923C13.1633 7.47881 13.2358 7.44757 13.2984 7.40105C13.3609 7.35454 13.4117 7.29405 13.4467 7.22442C13.4817 7.15478 13.5 7.07792 13.5 6.99998V3.99998C13.5 3.89249 13.4653 3.78787 13.4011 3.70163C13.337 3.6154 13.2467 3.55214 13.1438 3.52123Z" fill="#201F24"/>
</svg>
