<svg width="16" height="16" viewBox="0 0 16 16" fill="none" xmlns="http://www.w3.org/2000/svg">
<path d="M12.5 8.99999H7.70625L9.10688 7.59936C9.61326 7.85438 10.1712 7.99034 10.7381 7.99686C11.3088 7.99837 11.8687 7.84221 12.3563 7.54561C13.8388 6.64811 14.6331 4.57061 14.4813 1.98811C14.4741 1.86579 14.4223 1.75035 14.3357 1.66371C14.249 1.57707 14.1336 1.52526 14.0113 1.51811C11.4288 1.36624 9.35125 2.16061 8.45313 3.64311C7.86875 4.60874 7.85375 5.77499 8.39938 6.89311L7.5 7.79249L6.73688 7.02936C7.11188 6.20124 7.085 5.34186 6.65 4.62436C5.97063 3.49999 4.41313 2.90061 2.48313 3.01374C2.36102 3.02101 2.24581 3.0728 2.15932 3.1593C2.07282 3.2458 2.02103 3.361 2.01375 3.48311C1.9 5.41249 2.5 6.96999 3.625 7.64999C4.00138 7.8798 4.43402 8.00094 4.875 7.99999C5.27507 7.99602 5.66969 7.90674 6.0325 7.73811L6.79313 8.49999L6.29313 8.99999H3.5C3.3674 8.99999 3.24022 9.05267 3.14645 9.14643C3.05268 9.2402 3 9.36738 3 9.49999C3 9.6326 3.05268 9.75977 3.14645 9.85354C3.24022 9.94731 3.3674 9.99999 3.5 9.99999H4.09938L4.925 13.7169C4.97319 13.9396 5.0965 14.139 5.27425 14.2816C5.452 14.4241 5.67338 14.5013 5.90125 14.5H10.0994C10.3272 14.501 10.5485 14.4238 10.7262 14.2813C10.9039 14.1387 11.0272 13.9395 11.0756 13.7169L11.9013 9.99999H12.5C12.6326 9.99999 12.7598 9.94731 12.8536 9.85354C12.9473 9.75977 13 9.6326 13 9.49999C13 9.36738 12.9473 9.2402 12.8536 9.14643C12.7598 9.05267 12.6326 8.99999 12.5 8.99999Z" fill="#201F24"/>
</svg>
