<svg width="16" height="16" viewBox="0 0 16 16" fill="none" xmlns="http://www.w3.org/2000/svg">
<path d="M13 2H3C2.73478 2 2.48043 2.10536 2.29289 2.29289C2.10536 2.48043 2 2.73478 2 3V13C2 13.2652 2.10536 13.5196 2.29289 13.7071C2.48043 13.8946 2.73478 14 3 14H13C13.2652 14 13.5196 13.8946 13.7071 13.7071C13.8946 13.5196 14 13.2652 14 13V3C14 2.73478 13.8946 2.48043 13.7071 2.29289C13.5196 2.10536 13.2652 2 13 2ZM4.5 4.5H10.5C10.6326 4.5 10.7598 4.55268 10.8536 4.64645C10.9473 4.74021 11 4.86739 11 5C11 5.13261 10.9473 5.25979 10.8536 5.35355C10.7598 5.44732 10.6326 5.5 10.5 5.5H4.5C4.36739 5.5 4.24021 5.44732 4.14645 5.35355C4.05268 5.25979 4 5.13261 4 5C4 4.86739 4.05268 4.74021 4.14645 4.64645C4.24021 4.55268 4.36739 4.5 4.5 4.5ZM7 11.5H4.5C4.36739 11.5 4.24021 11.4473 4.14645 11.3536C4.05268 11.2598 4 11.1326 4 11C4 10.8674 4.05268 10.7402 4.14645 10.6464C4.24021 10.5527 4.36739 10.5 4.5 10.5H7C7.13261 10.5 7.25979 10.5527 7.35355 10.6464C7.44732 10.7402 7.5 10.8674 7.5 11C7.5 11.1326 7.44732 11.2598 7.35355 11.3536C7.25979 11.4473 7.13261 11.5 7 11.5ZM7.5 8.5H4.5C4.36739 8.5 4.24021 8.44732 4.14645 8.35355C4.05268 8.25979 4 8.13261 4 8C4 7.86739 4.05268 7.74021 4.14645 7.64645C4.24021 7.55268 4.36739 7.5 4.5 7.5H7.5C7.63261 7.5 7.75979 7.55268 7.85355 7.64645C7.94732 7.74021 8 7.86739 8 8C8 8.13261 7.94732 8.25979 7.85355 8.35355C7.75979 8.44732 7.63261 8.5 7.5 8.5ZM12.3538 10.3538L10.8538 11.8538C10.8073 11.9002 10.7522 11.9371 10.6915 11.9623C10.6308 11.9874 10.5657 12.0004 10.5 12.0004C10.4343 12.0004 10.3692 11.9874 10.3085 11.9623C10.2478 11.9371 10.1927 11.9002 10.1462 11.8538L8.64625 10.3538C8.55243 10.2599 8.49972 10.1327 8.49972 10C8.49972 9.86732 8.55243 9.74007 8.64625 9.64625C8.74007 9.55243 8.86732 9.49972 9 9.49972C9.13268 9.49972 9.25993 9.55243 9.35375 9.64625L10 10.2931V7.5C10 7.36739 10.0527 7.24021 10.1464 7.14645C10.2402 7.05268 10.3674 7 10.5 7C10.6326 7 10.7598 7.05268 10.8536 7.14645C10.9473 7.24021 11 7.36739 11 7.5V10.2931L11.6462 9.64625C11.7401 9.55243 11.8673 9.49972 12 9.49972C12.1327 9.49972 12.2599 9.55243 12.3538 9.64625C12.4476 9.74007 12.5003 9.86732 12.5003 10C12.5003 10.1327 12.4476 10.2599 12.3538 10.3538Z" fill="#201F24"/>
</svg>
