<svg width="16" height="16" viewBox="0 0 16 16" fill="none" xmlns="http://www.w3.org/2000/svg">
<path d="M14.5 13C14.5 13.1326 14.4473 13.2598 14.3536 13.3536C14.2598 13.4473 14.1326 13.5 14 13.5H2C1.86739 13.5 1.74021 13.4473 1.64645 13.3536C1.55268 13.2598 1.5 13.1326 1.5 13C1.5 12.8674 1.55268 12.7402 1.64645 12.6464C1.74021 12.5527 1.86739 12.5 2 12.5H14C14.1326 12.5 14.2598 12.5527 14.3536 12.6464C14.4473 12.7402 14.5 12.8674 14.5 13ZM14.5 3.5V10.5C14.5 10.7652 14.3946 11.0196 14.2071 11.2071C14.0196 11.3946 13.7652 11.5 13.5 11.5H2.5C2.23478 11.5 1.98043 11.3946 1.79289 11.2071C1.60536 11.0196 1.5 10.7652 1.5 10.5V3.5C1.5 3.23478 1.60536 2.98043 1.79289 2.79289C1.98043 2.60536 2.23478 2.5 2.5 2.5H13.5C13.7652 2.5 14.0196 2.60536 14.2071 2.79289C14.3946 2.98043 14.5 3.23478 14.5 3.5ZM10.25 7C10.25 6.91966 10.2306 6.84051 10.1935 6.76925C10.1564 6.69799 10.1027 6.63672 10.0369 6.59062L7.53687 4.84062C7.46196 4.78815 7.37409 4.75722 7.28282 4.75122C7.19155 4.74522 7.10038 4.76436 7.01923 4.80658C6.93809 4.84879 6.87008 4.91246 6.82261 4.99064C6.77514 5.06883 6.75003 5.15853 6.75 5.25V8.75C6.75003 8.84147 6.77514 8.93118 6.82261 9.00936C6.87008 9.08754 6.93809 9.15121 7.01923 9.19342C7.10038 9.23564 7.19155 9.25479 7.28282 9.24878C7.37409 9.24278 7.46196 9.21185 7.53687 9.15938L10.0369 7.40938C10.1027 7.36328 10.1564 7.30201 10.1935 7.23075C10.2306 7.15949 10.25 7.08034 10.25 7Z" fill="#201F24"/>
</svg>
