<svg width="16" height="16" viewBox="0 0 16 16" fill="none" xmlns="http://www.w3.org/2000/svg">
<path d="M15 11.5H14.5V3.61875L15.1044 3.48875C15.17 3.47644 15.2324 3.45113 15.2881 3.41431C15.3438 3.37748 15.3915 3.32989 15.4285 3.27433C15.4654 3.21877 15.4909 3.15637 15.5034 3.09081C15.5159 3.02525 15.5151 2.95785 15.5011 2.89259C15.4871 2.82733 15.4602 2.76553 15.422 2.71084C15.3838 2.65614 15.335 2.60965 15.2785 2.57411C15.222 2.53857 15.159 2.5147 15.0931 2.5039C15.0272 2.4931 14.9599 2.4956 14.895 2.51125L0.895 5.51125C0.77439 5.53727 0.667663 5.60698 0.595347 5.70695C0.52303 5.80692 0.490233 5.9301 0.503262 6.0528C0.516292 6.17549 0.574229 6.28904 0.665928 6.37159C0.757628 6.45415 0.876614 6.49988 1 6.5C1.03551 6.50001 1.07092 6.49624 1.10563 6.48875L1.5 6.40437V11.5H1C0.867392 11.5 0.740215 11.5527 0.646447 11.6464C0.552678 11.7402 0.5 11.8674 0.5 12C0.5 12.1326 0.552678 12.2598 0.646447 12.3535C0.740215 12.4473 0.867392 12.5 1 12.5H15C15.1326 12.5 15.2598 12.4473 15.3536 12.3535C15.4473 12.2598 15.5 12.1326 15.5 12C15.5 11.8674 15.4473 11.7402 15.3536 11.6464C15.2598 11.5527 15.1326 11.5 15 11.5ZM11.5 11.5H4.5V10.5H11.5V11.5ZM11.5 9.5H4.5V8.5H11.5V9.5Z" fill="#201F24"/>
</svg>
