<svg width="16" height="16" viewBox="0 0 16 16" fill="none" xmlns="http://www.w3.org/2000/svg">
<path d="M14.5 6C14.5008 6.74838 14.3149 7.48514 13.9591 8.14357C13.6034 8.80199 13.089 9.3613 12.4627 9.77086C11.8363 10.1804 11.1177 10.4273 10.3718 10.4891C9.62601 10.551 8.87653 10.4258 8.19126 10.125L4.93751 13.8887C4.93001 13.8975 4.92126 13.9069 4.91314 13.915C4.53802 14.2901 4.02926 14.5009 3.49876 14.5009C2.96827 14.5009 2.4595 14.2901 2.08439 13.915C1.70927 13.5399 1.49854 13.0311 1.49854 12.5006C1.49854 11.9701 1.70927 11.4614 2.08439 11.0862C2.09314 11.0781 2.10189 11.0694 2.11126 11.0619L5.87501 7.80875C5.5378 7.03738 5.42351 6.18694 5.5451 5.35392C5.6667 4.52089 6.0193 3.73861 6.56293 3.09581C7.10656 2.45301 7.81945 1.97542 8.62073 1.71721C9.42201 1.45901 10.2796 1.43053 11.0963 1.635C11.1804 1.6561 11.2577 1.69875 11.3204 1.75875C11.3831 1.81875 11.4291 1.89405 11.4539 1.97722C11.4787 2.0604 11.4814 2.14859 11.4617 2.23313C11.4421 2.31767 11.4008 2.39564 11.3419 2.45937L9.00001 5L9.35376 6.64687L11 7L13.5406 4.655C13.6044 4.59609 13.6823 4.55479 13.7669 4.53515C13.8514 4.51551 13.9396 4.51822 14.0228 4.543C14.106 4.56778 14.1813 4.61379 14.2413 4.67649C14.3013 4.73919 14.3439 4.81644 14.365 4.90062C14.4547 5.26019 14.5001 5.6294 14.5 6Z" fill="#201F24"/>
</svg>
